<svg
  xmlns="http://www.w3.org/2000/svg"
  xmlns:xlink="http://www.w3.org/1999/xlink"
  viewBox="0 0 512 512"
  style="enable-background:new 0 0 512 512;"
  xml:space="preserve"
>
    <title>Tahoe City Kayak logo</title>
  <style>
    path { fill: #bf4040; }
    @media (prefers-color-scheme: dark) {
      path { fill: #f8f8f8; }
    }
  </style>
<path d="M299.2,393.1c-7.6-42.9-20.9-84.5-32.7-126.2c0-43.7,0.1-87.3,0.1-131c0-23.6,0-47.3,0-70.9c0-8.9,5.8-14.3,9.8-20.6
	c5.7-9,7.8-20.6,0-28.3c-5.1-5.4-12.7-8.1-20.3-8.2c-7.6,0.1-15.2,2.8-20.3,8.2c-7.9,7.7-5.8,19.3,0,28.3c4,6.4,9.8,12.5,9.8,20.6
	c0,23.6,0.1,47.3,0,70.9c0,43.7,0,87.3,0.1,131c-11.9,41.7-25.2,83.4-32.7,126.2c-5.6,33-3.8,66.9,1.1,99.9
	c12.6,6,27.6,11,42.1,11.2c14.5-0.2,29.5-5.3,42.1-11.2C302.9,460.1,304.7,426.1,299.2,393.1z"/>
</svg>
